# xmcd
#
# Track frame offsets:
#	150
#	20288
#	39723
#	73397
#	102033
#	117713
#	135887
#	156377
#	181858
#	203546
#	219630
#	238133
#	254065
#	279139
#	302877
#
# Disc length: 4238 seconds
#
# Revision: 0
# Processed by: cddbd v1.5.2PL0 Copyright (c) Steve Scherf et al.
# Submitted via: dBpowerAMP V4.0
#
DISCID=db108c0f
DTITLE=Chris Fitz Band - Chris Fitz Band
DYEAR=1900
DGENRE=Blues
TTITLE0=Freedom
TTITLE1=It's Gonna Be Alright
TTITLE2=If I Go Down Dyin'
TTITLE3=Long Way Home
TTITLE4=Gotta Make Things Right
TTITLE5=Last Train Out
TTITLE6=Dirty Wide River
TTITLE7=If You See Me Tomorrow...Tell Me About Last Night
TTITLE8=Welcome To The Rhythm Room
TTITLE9=I've Been Alone Too Long
TTITLE10=East...West Love Affair
TTITLE11=21st Century Blues
TTITLE12=If You See Her
TTITLE13=Long Winded Mama
TTITLE14=Hasta La Vista (Strolling with Mr. Cockburn)
EXTD=Chris Fitz Band
EXTT0=
EXTT1=
EXTT2=
EXTT3=
EXTT4=
EXTT5=
EXTT6=
EXTT7=
EXTT8=
EXTT9=
EXTT10=
EXTT11=
EXTT12=
EXTT13=
EXTT14=
PLAYORDER=
